<?xml version="1.0" encoding="UTF-8"?>
<!DOCTYPE svg PUBLIC "-//W3C//DTD SVG 1.1//EN" "http://www.w3.org/Graphics/SVG/1.1/DTD/svg11.dtd">
<!-- Creator: CorelDRAW 2021 (64 Bit) -->
<svg xmlns="http://www.w3.org/2000/svg" xml:space="preserve" width="20mm" height="20mm" version="1.1" style="shape-rendering:geometricPrecision; text-rendering:geometricPrecision; image-rendering:optimizeQuality; fill-rule:evenodd; clip-rule:evenodd"
viewBox="0 0 2000 2000"
 xmlns:xlink="http://www.w3.org/1999/xlink"
 xmlns:xodm="http://www.corel.com/coreldraw/odm/2003">
 <defs>
  <style type="text/css">
   <![CDATA[
    .fil1 {fill:#002A4B}
    .fil0 {fill:#0069B1}
   ]]>
  </style>
 </defs>
 <g id="Camada_x0020_1">
  <metadata id="CorelCorpID_0Corel-Layer"/>
  <g id="_2769044585680">
   <path class="fil0" d="M3266.62 914.09l414.28 0c45.06,27.06 95.95,45.41 150.33,52.72l-510.41 0 0 56.18 1127.35 0 0 -56.18 -510.41 0c54.38,-7.31 105.26,-25.66 150.32,-52.72l414.29 0 0 161.63 -1235.75 0 0 -161.63zm577.17 -614.96l97.34 0 0 67.75c29.03,5.7 57.05,16.84 80.37,32.27 -10.72,30.06 -21.43,60.13 -32.15,90.19 -38.15,-24 -98.91,-54.18 -120.56,-23.22 -34.81,49.81 116.62,52.47 152,154.12 22.51,64.66 -2.08,139.25 -79.66,162.24l0 73 -97.34 0 0 -68.99c-37.02,-6.21 -73.71,-20.33 -103.59,-40.86 13.1,-29.76 26.19,-59.52 39.29,-89.29 39.59,22.72 79.61,49.08 118.78,41.97 29.14,-5.3 43.09,-43.2 7.14,-62.52 -37.02,-19.89 -72.94,-28.88 -101.8,-50.9 -40.45,-34.04 -58.67,-72.34 -47.34,-121.44 11.75,-50.86 45.71,-80.42 87.52,-93.26l0 -71.06z"/>
   <path class="fil1" d="M2983.84 1126.1l116.27 -360.32 437.64 0c-31.4,-56.75 -49.3,-122 -49.3,-191.44 0,-218.72 177.33,-396.04 396.05,-396.04 218.7,0 396.03,177.32 396.03,396.04 0,69.44 -17.9,134.7 -49.3,191.44l437.64 0 116.27 360.32 -57.8 710.66 -1685.7 0 -57.8 -710.66zm622.88 -356.1l1.65 2.31 3 4.12 1.62 2.16 3.47 4.53 1.81 2.29 0.27 0.35 0.92 1.14 0.91 1.13 0.92 1.13 2.59 3.13 2.4 2.84 2.49 2.88 0.06 0.07 0.97 1.09 0.96 1.09 0.98 1.09 1.95 2.16 0.99 1.07 0.13 0.14 2.03 2.18 2.84 2.99 1.01 1.05 2.07 2.1 3.01 3.01 0.05 0.06 1.05 1.03 1.04 1.01 0.38 0.36 3.55 3.4 0.29 0.27 1.07 1 1.07 0.99 3.23 2.94 1.09 0.97 1.09 0.97 0.32 0.27 3.85 3.36c59.37,50.75 136.42,81.41 220.65,81.41 83.05,0 159.14,-29.83 218.17,-79.33l1.12 -0.94 1.11 -0.94 0.13 -0.11 3.95 -3.45 0.32 -0.27 1.09 -0.97 1.09 -0.97 3.23 -2.94 1.07 -0.99 1.07 -1 0.29 -0.27 2.88 -2.75 1.05 -1.01 1.04 -1.01 1.05 -1.03 0.05 -0.06 3.01 -3.01 2.07 -2.1 1.01 -1.05 2.84 -2.99 2.03 -2.18 0.13 -0.14 0.99 -1.07 1.95 -2.16 0.98 -1.09 0.96 -1.09 0.97 -1.09 0.06 -0.07 2.49 -2.88 2.4 -2.84 2.59 -3.13 0.92 -1.13 0.91 -1.13 0.92 -1.14 0.91 -1.15 1.17 -1.49 3.47 -4.53 1.7 -2.28 2.65 -3.63 2.17 -3.04 1.85 -2.66 0.83 -1.2c37.26,-54.52 59.05,-120.43 59.05,-191.44 0,-187.63 -152.12,-339.76 -339.74,-339.76 -187.64,0 -339.76,152.13 -339.76,339.76 0,72.85 22.94,140.34 61.98,195.66zm-20.58 64.76l-435.8 0 -93.27 289.03 827.42 0 827.42 0 -93.27 -289.03 -435.8 0c-72.6,83.1 -179.34,135.61 -298.34,135.61 -119.01,0 -225.76,-52.5 -298.36,-135.61zm298.35 933.02l-779.25 0 -48.17 -592.22 827.42 0 827.42 0 -48.17 592.22 -779.25 0z"/>
  </g>
  <g id="_2769044584192">
   <path class="fil1" d="M-865.9 233.11c220.96,0 400.11,179.14 400.11,400.11 0,220.97 -179.15,400.12 -400.11,400.12 -220.98,0 -400.12,-179.15 -400.12,-400.12 0,-220.97 179.14,-400.11 400.12,-400.11zm-1045.2 406.67l581.43 0c0.3,21.75 2.09,43.13 5.29,64.06l-668.5 0c9.11,-36.68 42.4,-64.06 81.78,-64.06zm584.43 -59.68l-584.43 0c-72.78,0 -133.4,54.76 -142.69,125.11 -69.88,9.73 -124.12,70.11 -124.12,142.55l0 735.39c0,79.16 64.76,143.93 143.93,143.93l39.63 0 -0.98 77.2c-1.84,38.45 29.33,51.12 52.8,33.67l96.95 -110.87 845.36 0c72.78,0 133.4,-54.76 142.69,-125.12 69.88,-9.72 124.12,-70.1 124.12,-142.54l0 -381.63c191.59,-57.01 331.31,-234.46 331.31,-444.57 0,-256.14 -207.66,-463.81 -463.8,-463.81 -238.19,0 -434.42,179.57 -460.77,410.69zm533.58 511.19l0 368.13c0,39.08 -26.96,72.16 -63.21,81.57l0 -444.08c21.47,-0.44 42.56,-2.36 63.21,-5.62zm-1240.89 -327.77l722.85 0c51.8,177.26 206.55,310.57 395.16,330.82l0 488.81c0,46.34 -37.91,84.25 -84.25,84.25l-874.89 0 -54.22 55.04 -0.4 -55.04 -104.25 0c-46.34,0 -84.25,-37.91 -84.25,-84.25l0 -735.39c0,-46.33 37.91,-84.24 84.25,-84.24z"/>
   <path class="fil0" d="M-1806.48 1110.46c51.3,0 92.88,41.58 92.88,92.88 0,51.3 -41.58,92.88 -92.88,92.88 -51.3,0 -92.89,-41.58 -92.89,-92.88 0,-51.3 41.59,-92.88 92.89,-92.88zm274.8 0c51.3,0 92.88,41.58 92.88,92.88 0,51.3 -41.58,92.88 -92.88,92.88 -51.3,0 -92.88,-41.58 -92.88,-92.88 0,-51.3 41.58,-92.88 92.88,-92.88zm274.8 0c51.3,0 92.88,41.58 92.88,92.88 0,51.3 -41.58,92.88 -92.88,92.88 -51.3,0 -92.88,-41.58 -92.88,-92.88 0,-51.3 41.58,-92.88 92.88,-92.88zm159.65 -571.31c-24.47,-24.22 -24.71,-63.76 -0.46,-88.27l46.78 -47.28c23.77,-24.52 63.3,-25.12 88.26,-0.91l96.02 94.99 95.65 -96.67c24.37,-23.63 63.22,-23.46 87.37,0.43l47.5 47c24.83,24.57 24.65,64.83 0.01,88.72l-94.3 95.31 96.71 95.68c23.63,24.38 23.45,63.22 -0.44,87.37l-47 47.5c-24.57,24.84 -64.83,24.65 -88.71,0.01l-95.34 -94.32 -94.81 95.83c-24.21,24.47 -63.76,24.71 -88.27,0.46l-47.27 -46.78c-24.52,-23.76 -25.12,-63.3 -0.92,-88.26l95.02 -96.03 -95.8 -94.78zm43.5 -43.96l139.74 138.27 -138.26 139.75c-0.23,0.23 -0.23,0.6 0.01,0.82l47.5 47c0.23,0.23 0.59,0.22 0.82,0l138.27 -139.76 139.75 138.26c0.22,0.23 0.59,0.23 0.82,0l46.99 -47.5c0.24,-0.23 0.23,-0.6 0,-0.83l-139.75 -138.26 138.26 -139.74c0.23,-0.23 0.22,-0.6 0,-0.82l-47.5 -47c-0.23,-0.23 -0.6,-0.23 -0.83,0l-138.26 139.74 -139.75 -138.26c-0.23,-0.22 -0.59,-0.22 -0.82,0.01l-46.99 47.5c-0.23,0.23 -0.23,0.6 0,0.82zm-203.15 675.35c18.12,0 32.8,14.68 32.8,32.8 0,18.12 -14.68,32.8 -32.8,32.8 -18.12,0 -32.8,-14.68 -32.8,-32.8 0,-18.12 14.68,-32.8 32.8,-32.8zm-274.8 0c18.12,0 32.8,14.68 32.8,32.8 0,18.12 -14.68,32.8 -32.8,32.8 -18.12,0 -32.8,-14.68 -32.8,-32.8 0,-18.12 14.68,-32.8 32.8,-32.8zm-274.8 0c18.12,0 32.8,14.68 32.8,32.8 0,18.12 -14.68,32.8 -32.8,32.8 -18.12,0 -32.81,-14.68 -32.81,-32.8 0,-18.12 14.69,-32.8 32.81,-32.8z"/>
  </g>
  <g id="_2769044584048">
   <path class="fil1" d="M3852.25 -293.42l-773.62 0 -6.06 -0.94c-72.67,-11.29 -123.61,-56.89 -138.97,-129.9l-0.91 -4.33 -50.07 -518.72c-67.59,-60.44 -110.37,-149.8 -110.37,-249.5 0,-76.11 24.94,-146.17 66.8,-201.96l-2.34 -24.19 17.63 0 0 -138.07 -49.32 0 0 -35.92 1307.56 0 0 35.92 -47.03 0 0 138.07 28.62 0 -1.18 12.25c47.49,57.57 76.19,132.26 76.19,213.9 0,105.25 -47.67,198.96 -121.86,259.3l-49.13 508.92 -0.91 4.33c-15.36,73.01 -66.3,118.61 -138.97,129.9l-6.06 0.94zm-978.81 -749.01l-25.22 -261.31c-13.54,32.84 -21.03,68.98 -21.03,106.93 0,57.3 17.08,110.49 46.25,154.38zm1211.06 -280.34l-28.68 297.2c36.54,-46.8 58.42,-106.37 58.42,-171.24 0,-45.45 -10.74,-88.28 -29.74,-125.96zm-1194.54 -204.37l1139.96 0 0 75.7 -1139.96 0 0 -75.7zm575.48 1154.22l-380.67 0c-37.07,-5.75 -64.3,-24.57 -73.38,-67.71l-87.14 -902.83 541.19 0 541.19 0 -87.14 902.83c-9.08,43.14 -36.31,61.96 -73.38,67.71l-380.67 0z"/>
   <path class="fil0" d="M3455.84 -1596.95c-208.27,0 -416.54,0 -624.8,0 7.74,-51.51 15.49,-103.03 23.23,-154.54 133.67,-46.84 1069.47,-46.84 1203.13,0 7.74,51.51 15.49,103.03 23.24,154.54 -208.27,0 -416.54,0 -624.8,0z"/>
  </g>
  <g id="_2769044583664">
   <path class="fil0" d="M-2655.36 -850.05l753.72 0c16.09,0 29.24,13.16 29.24,29.25 0,16.09 -13.15,29.25 -29.24,29.25l-753.72 0c-16.09,0 -29.24,-13.16 -29.24,-29.25 0,-16.09 13.15,-29.25 29.24,-29.25zm0 606.66l753.72 0c16.09,0 29.24,13.15 29.24,29.24 0,16.09 -13.15,29.25 -29.24,29.25l-753.72 0c-16.09,0 -29.24,-13.16 -29.24,-29.25 0,-16.09 13.15,-29.24 29.24,-29.24zm0 -303.33l713.82 0 -10.66 58.49 -703.16 0c-16.09,0 -29.24,-13.16 -29.24,-29.25 0,-16.09 13.15,-29.24 29.24,-29.24z"/>
   <g>
    <polygon class="fil1" points="-2907.8,-1294.45 -1654.65,-1294.45 -1654.65,-846.64 -1714.32,-789.81 -1714.32,-1234.78 -2848.13,-1234.78 -2848.13,62.57 -1714.32,62.57 -1714.32,-466.93 -1654.65,-520.82 -1654.65,122.25 -2907.8,122.25 "/>
    <path class="fil1" d="M-1634.46 -904.55l8.56 8.55 27.15 -27.15 -8.55 -8.56 316.53 -316.53c51.4,-51.4 135.21,-51.4 186.61,0l10.63 10.64c54,54 54,142.05 0,196.05l-311.8 311.81 -9.25 -9.24 -27.15 27.15 9.24 9.25 -336.39 336.38 -15.35 -15.35 -206.28 35.03 35.03 -206.28 -15.36 -15.36 336.38 -336.39zm284.28 -349.2l0.01 0c10.89,10.89 10.89,28.71 0,39.6l-207.38 207.38c-10.89,10.89 -28.71,10.89 -39.6,0l-0.01 0c-10.89,-10.9 -10.89,-28.71 0,-39.61l207.38 -207.37c10.89,-10.9 28.71,-10.9 39.6,0zm-97.28 481.88l-118.4 -118.4 -27.16 27.16 118.4 118.4 27.16 -27.16zm42.13 -42.91l-116.93 -116.93 274.01 -274.01c27.93,-27.93 73.64,-27.93 101.57,0l10.64 10.64c30.53,30.53 30.53,80.48 0,111.01l-269.29 269.29zm-415 397.13l-99.06 -99.06 -20.26 119.33 119.32 -20.27zm185.86 -404.22l119.29 119.29 -253.71 253.71 -119.29 -119.29 253.71 -253.71z"/>
   </g>
  </g>
  <g id="_2769044572672">
   <path class="fil1" d="M648.41 973.64c10.41,27.38 31.99,63.5 40.84,77.2 33.62,52.09 76.27,104.02 120.06,147.81 43.79,43.79 95.72,86.43 147.81,120.06 13.7,8.85 49.82,30.43 77.2,40.84 55.85,-100.92 138.9,-197.7 263.14,-195.42 148.96,2.75 312.26,162.96 313.91,312.71 1.5,134.99 -105.65,237.39 -224.65,282.46 -264.25,100.08 -638.13,-132.96 -821.13,-313.41l-3.44 -3.39c-180.88,-182.65 -413.56,-557.05 -313.49,-821.26 45.07,-119 147.47,-226.15 282.46,-224.65 149.75,1.66 309.96,164.95 312.71,313.91 2.28,124.24 -94.49,207.29 -195.42,263.14zm-33.6 422.33l-0.02 0.02 -1.4 -1.42 -1.42 -1.4 0.02 -0.02c-159.42,-160.94 -386.18,-513.7 -297.77,-747.07 38.13,-100.71 118.91,-180.48 216.12,-179.39 111.85,1.23 241.36,134.33 243.4,245.1 1.8,98.4 -90.14,168.51 -199.41,221.2 -16.98,68.17 90.78,220.16 185.41,315.23 95.06,94.63 247.07,202.39 315.23,185.41 52.69,-109.27 122.8,-201.21 221.2,-199.4 110.77,2.04 243.87,131.54 245.11,243.39 1.08,97.21 -78.69,177.99 -179.4,216.12 -233.37,88.41 -586.13,-138.35 -747.07,-297.77z"/>
   <path class="fil0" d="M1360.63 990.43c0.64,-90.7 -33.62,-181.62 -102.83,-250.83 -64.85,-64.85 -148.76,-99 -233.69,-102.52 -38.95,-1.61 -70.02,-32.3 -72.12,-71.23 -0.03,-0.67 -0.07,-1.36 -0.11,-2.03 -1.18,-21.97 6.17,-41.33 21.61,-56.98 15.46,-15.65 34.72,-23.25 56.69,-22.35 121.97,4.98 242.47,54.01 335.59,147.14 99.33,99.33 148.51,229.82 147.55,359.99 -0.15,21.36 -8.16,39.69 -23.71,54.32 -15.56,14.64 -34.34,21.51 -55.68,20.36 -0.67,-0.05 -1.34,-0.08 -2.02,-0.11 -40.19,-2.16 -71.57,-35.51 -71.28,-75.76zm45.42 0.32c-0.11,15.98 12.35,29.23 28.31,30.08 0.67,0.04 1.35,0.07 2.03,0.11 8.92,0.49 15.58,-1.95 22.09,-8.08 6.47,-6.09 9.35,-12.68 9.42,-21.57 0.9,-123.19 -47.12,-240.42 -134.25,-327.54 -81.67,-81.68 -189.91,-129.16 -305.32,-133.88 -9.19,-0.37 -16.06,2.33 -22.52,8.88 -6.45,6.53 -9.06,13.44 -8.57,22.62 0.03,0.69 0.07,1.36 0.11,2.04 0.84,15.56 13.07,27.64 28.64,28.28 99.68,4.13 193.37,45.24 263.92,115.8 75.3,75.29 116.9,176.8 116.14,283.26zm251.94 -15.9c-0.1,14.35 11.14,26.29 25.45,27.06 1.06,0.05 2.11,0.12 3.17,0.18 8.5,0.45 13.65,-1.43 19.86,-7.27 6.12,-5.77 8.41,-10.99 8.47,-19.4 1.36,-186.44 -71.31,-363.84 -203.16,-495.68 -123.6,-123.61 -287.38,-195.45 -462.04,-202.59 -8.76,-0.35 -14.1,1.74 -20.26,7.97 -6.14,6.23 -8.18,11.61 -7.71,20.35 0.06,1.06 0.12,2.12 0.17,3.19 0.76,14.1 11.66,24.85 25.77,25.43 160.05,6.62 310.52,72.67 423.79,185.93 120.87,120.87 187.71,283.9 186.49,454.83zm-45.42 -0.32c-0.28,38.61 29.88,70.66 68.43,72.73 1.05,0.06 2.1,0.13 3.16,0.18 20.92,1.13 38.17,-5.17 53.43,-19.54 15.2,-14.31 22.61,-31.28 22.77,-52.15 1.45,-198.6 -75.99,-387.67 -216.46,-528.13 -131.69,-131.69 -306.25,-208.25 -492.31,-215.85 -21.56,-0.88 -39.28,6.09 -54.44,21.45 -15.15,15.34 -21.9,33.17 -20.74,54.7 0.07,1.06 0.12,2.12 0.17,3.17 2.02,37.48 31.76,66.84 69.25,68.39 148.66,6.15 288.33,67.43 393.55,172.66 112.3,112.3 174.32,263.62 173.19,422.39z"/>
  </g>
  <g id="_2769044574112">
   <path class="fil0" d="M989.65 2213.39c96.44,0 174.63,78.18 174.63,174.63 0,96.44 -78.19,174.63 -174.63,174.63 -96.44,0 -174.63,-78.19 -174.63,-174.63 0,-96.45 78.19,-174.63 174.63,-174.63zm152.46 360.8c130.73,36.09 227.45,156.36 227.45,298.16l0 233.19 -754.17 0 0 -233.19c0,-140.28 94.67,-259.5 223.27,-296.99 -54.66,-44.11 -89.64,-111.63 -89.64,-187.34 0,-132.9 107.74,-240.63 240.63,-240.63 132.89,0 240.63,107.73 240.63,240.63 0,75.03 -34.34,142.04 -88.17,186.17zm-463.27 467.9l627.27 0 0 -169.74c0,-332.07 -627.27,-331.88 -627.27,0l0 169.74z"/>
   <g>
    <path class="fil1" d="M1564.47 2118.18c96.44,0 174.63,78.19 174.63,174.63 0,96.44 -78.19,174.63 -174.63,174.63 -96.45,0 -174.63,-78.19 -174.63,-174.63 0,-96.44 78.18,-174.63 174.63,-174.63zm152.46 360.8c130.72,36.1 227.45,156.37 227.45,298.16l0 233.19 -574.82 0 0 -63.45 511.36 0 0 -169.74c0,-287.09 -468.77,-325.79 -595.78,-116.55 -15.15,-16.06 -31.99,-30.51 -50.22,-43.07 39.85,-65.63 103.4,-115.45 178.55,-137.36 -54.66,-44.11 -89.64,-111.64 -89.64,-187.35 0,-132.89 107.74,-240.63 240.64,-240.63 132.89,0 240.63,107.74 240.63,240.63 0,75.03 -34.35,142.04 -88.17,186.17z"/>
    <path class="fil1" d="M414.83 2118.18c96.45,0 174.63,78.19 174.63,174.63 0,96.44 -78.18,174.63 -174.63,174.63 -96.44,0 -174.63,-78.19 -174.63,-174.63 0,-96.44 78.19,-174.63 174.63,-174.63zm152.47 360.8c76.97,21.25 142.14,71.69 182.73,138.53 -18.23,12.55 -35.06,27 -50.2,43.07 -126.99,-209.32 -595.8,-170.38 -595.8,116.56l0 169.74 511.36 0 0 63.45 -574.81 0 0 -233.19c0,-140.28 94.66,-259.5 223.26,-296.98 -54.66,-44.11 -89.64,-111.64 -89.64,-187.35 0,-132.89 107.74,-240.63 240.63,-240.63 132.9,0 240.64,107.74 240.64,240.63 0,75.03 -34.35,142.04 -88.17,186.17z"/>
   </g>
  </g>
 </g>
</svg>
