<?xml version="1.0" encoding="UTF-8"?>
<!DOCTYPE svg PUBLIC "-//W3C//DTD SVG 1.1//EN" "http://www.w3.org/Graphics/SVG/1.1/DTD/svg11.dtd">
<!-- Creator: CorelDRAW 2021 (64 Bit) -->
<svg xmlns="http://www.w3.org/2000/svg" xml:space="preserve" width="20mm" height="20mm" version="1.1" style="shape-rendering:geometricPrecision; text-rendering:geometricPrecision; image-rendering:optimizeQuality; fill-rule:evenodd; clip-rule:evenodd"
viewBox="0 0 2000 2000"
 xmlns:xlink="http://www.w3.org/1999/xlink"
 xmlns:xodm="http://www.corel.com/coreldraw/odm/2003">
 <defs>
  <style type="text/css">
   <![CDATA[
    .fil1 {fill:#002A4B}
    .fil0 {fill:#0069B1}
   ]]>
  </style>
 </defs>
 <g id="Camada_x0020_1">
  <metadata id="CorelCorpID_0Corel-Layer"/>
  <g id="_2768277101696">
   <path class="fil0" d="M2789.12 898.62l459.98 0c50.04,30.05 106.53,50.43 166.92,58.54l-566.72 0 0 62.37 1251.7 0 0 -62.37 -566.7 0c60.37,-8.11 116.87,-28.49 166.9,-58.54l459.99 0 0 179.46 -1372.07 0 0 -179.46zm640.84 -682.8l108.07 0 0 75.23c32.24,6.33 63.35,18.7 89.24,35.83 -11.9,33.38 -23.79,66.76 -35.69,100.14 -42.36,-26.65 -109.83,-60.16 -133.86,-25.78 -38.65,55.3 129.48,58.25 168.76,171.12 25,71.79 -2.3,154.61 -88.45,180.13l0 81.06 -108.07 0 0 -76.6c-41.11,-6.9 -81.84,-22.58 -115.01,-45.36 14.54,-33.06 29.07,-66.1 43.62,-99.15 43.95,25.22 88.39,54.5 131.88,46.6 32.35,-5.88 47.85,-47.96 7.93,-69.41 -41.11,-22.09 -80.98,-32.07 -113.03,-56.52 -44.92,-37.8 -65.15,-80.32 -52.56,-134.84 13.05,-56.46 50.75,-89.29 97.17,-103.54l0 -78.91z"/>
   <path class="fil1" d="M2475.15 1134.02l129.1 -400.07 485.91 0c-34.86,-63 -54.73,-135.45 -54.73,-212.55 0,-242.85 196.88,-439.73 439.73,-439.73 242.83,0 439.71,196.88 439.71,439.73 0,77.1 -19.87,149.55 -54.73,212.55l485.91 0 129.1 400.07 -64.18 789.05 -1871.64 0 -64.18 -789.05zm691.59 -395.38l1.83 2.57 3.34 4.57 1.79 2.4 3.86 5.02 2 2.55 0.3 0.39 1.02 1.26 1.02 1.26 1.02 1.26 2.87 3.47 2.66 3.15 2.77 3.19 0.07 0.08 1.07 1.21 1.08 1.22 1.08 1.2 2.17 2.41 1.1 1.18 0.14 0.16 2.25 2.41 3.16 3.33 1.12 1.16 2.29 2.34 3.34 3.34 0.07 0.07 1.16 1.13 1.15 1.13 0.42 0.4 3.95 3.78 0.32 0.3 1.19 1.1 1.18 1.1 3.59 3.27 1.21 1.08 1.21 1.07 0.36 0.31 4.27 3.72c65.92,56.35 151.47,90.39 244.99,90.39 92.21,0 176.7,-33.11 242.23,-88.08l1.25 -1.04 1.23 -1.05 0.14 -0.12 4.39 -3.82 0.36 -0.31 1.21 -1.07 1.21 -1.08 3.59 -3.27 1.18 -1.1 1.19 -1.1 0.32 -0.3 3.2 -3.05 1.17 -1.13 1.15 -1.13 1.16 -1.13 0.07 -0.07 3.34 -3.34 2.29 -2.34 1.12 -1.16 3.16 -3.33 2.25 -2.41 0.14 -0.16 1.1 -1.18 2.17 -2.41 1.08 -1.2 1.08 -1.22 1.07 -1.21 0.07 -0.08 2.77 -3.19 2.66 -3.15 2.87 -3.47 1.02 -1.26 1.02 -1.26 1.02 -1.26 1.01 -1.28 1.29 -1.66 3.86 -5.02 1.88 -2.53 2.95 -4.03 2.41 -3.38 2.05 -2.95 0.92 -1.34c41.37,-60.54 65.57,-133.71 65.57,-212.55 0,-208.34 -168.9,-377.24 -377.22,-377.24 -208.34,0 -377.24,168.9 -377.24,377.24 0,80.89 25.48,155.81 68.82,217.24zm-22.85 71.9l-483.87 0 -103.56 320.91 918.69 0 918.69 0 -103.56 -320.91 -483.87 0c-80.61,92.27 -199.12,150.57 -331.25,150.57 -132.14,0 -250.67,-58.29 -331.27,-150.57zm331.26 1035.94l-865.2 0 -53.49 -657.55 918.69 0 918.69 0 -53.49 657.55 -865.2 0z"/>
  </g>
  <g id="_2768277100784">
   <path class="fil1" d="M-1322.01 177.14c236.93,0 429.02,192.09 429.02,429.03 0,236.94 -192.09,429.03 -429.02,429.03 -236.95,0 -429.04,-192.09 -429.04,-429.03 0,-236.94 192.09,-429.03 429.04,-429.03zm-1120.74 436.07l623.45 0c0.33,23.32 2.25,46.24 5.68,68.68l-716.82 0c9.77,-39.32 45.46,-68.68 87.69,-68.68zm626.67 -64l-626.67 0c-78.04,0 -143.04,58.72 -153,134.16 -74.92,10.43 -133.09,75.16 -133.09,152.85l0 788.53c0,84.88 69.45,154.33 154.33,154.33l42.5 0 -1.05 82.78c-1.98,41.23 31.45,54.82 56.62,36.1l103.95 -118.88 906.45 0c78.05,0 143.05,-58.72 153,-134.16 74.93,-10.43 133.09,-75.16 133.09,-152.85l0 -409.21c205.44,-61.12 355.26,-251.4 355.26,-476.69 0,-274.66 -222.67,-497.33 -497.32,-497.33 -255.41,0 -465.81,192.54 -494.07,440.37zm572.14 548.13l0 394.73c0,41.91 -28.91,77.39 -67.77,87.47l0 -476.17c23.01,-0.47 45.63,-2.53 67.77,-6.03zm-1330.57 -351.46l775.09 0c55.54,190.07 221.47,333.02 423.72,354.73l0 524.14c0,49.69 -40.65,90.33 -90.34,90.33l-938.11 0 -58.15 59.03 -0.42 -59.03 -111.79 0c-49.69,0 -90.34,-40.64 -90.34,-90.33l0 -788.53c0,-49.69 40.65,-90.34 90.34,-90.34z"/>
   <path class="fil0" d="M-2330.57 1117.89c55.01,0 99.6,44.59 99.6,99.6 0,55.01 -44.59,99.6 -99.6,99.6 -55.01,0 -99.59,-44.59 -99.59,-99.6 0,-55.01 44.58,-99.6 99.59,-99.6zm294.66 0c55.01,0 99.6,44.59 99.6,99.6 0,55.01 -44.59,99.6 -99.6,99.6 -55.01,0 -99.59,-44.59 -99.59,-99.6 0,-55.01 44.58,-99.6 99.59,-99.6zm294.66 0c55.01,0 99.6,44.59 99.6,99.6 0,55.01 -44.59,99.6 -99.6,99.6 -55.01,0 -99.59,-44.59 -99.59,-99.6 0,-55.01 44.58,-99.6 99.59,-99.6zm171.2 -612.59c-26.25,-25.97 -26.5,-68.37 -0.5,-94.65l50.16 -50.7c25.48,-26.28 67.88,-26.93 94.64,-0.97l102.95 101.86 102.57 -103.66c26.13,-25.34 67.78,-25.15 93.68,0.46l50.94 50.4c26.62,26.34 26.43,69.52 0,95.13l-101.11 102.2 103.7 102.59c25.34,26.14 25.15,67.79 -0.47,93.68l-50.39 50.94c-26.35,26.63 -69.52,26.43 -95.13,0.01l-102.23 -101.14 -101.66 102.76c-25.96,26.24 -68.36,26.49 -94.64,0.49l-50.7 -50.16c-26.29,-25.48 -26.93,-67.87 -0.98,-94.64l101.89 -102.97 -102.72 -101.63zm46.63 -47.13l149.85 148.25 -148.26 149.85c-0.24,0.25 -0.24,0.64 0.01,0.89l50.93 50.39c0.25,0.25 0.64,0.24 0.88,0l148.27 -149.86 149.84 148.25c0.24,0.25 0.64,0.25 0.88,0l50.4 -50.93c0.25,-0.25 0.24,-0.64 0,-0.89l-149.86 -148.26 148.25 -149.83c0.25,-0.24 0.24,-0.64 0,-0.88l-50.93 -50.4c-0.25,-0.25 -0.64,-0.24 -0.89,0l-148.25 149.84 -149.84 -148.25c-0.25,-0.24 -0.64,-0.24 -0.89,0.01l-50.39 50.93c-0.25,0.25 -0.24,0.64 0,0.89zm-217.83 724.15c19.43,0 35.18,15.74 35.18,35.17 0,19.43 -15.75,35.17 -35.18,35.17 -19.43,0 -35.17,-15.74 -35.17,-35.17 0,-19.43 15.74,-35.17 35.17,-35.17zm-294.66 0c19.43,0 35.18,15.74 35.18,35.17 0,19.43 -15.75,35.17 -35.18,35.17 -19.43,0 -35.17,-15.74 -35.17,-35.17 0,-19.43 15.74,-35.17 35.17,-35.17zm-294.66 0c19.43,0 35.18,15.74 35.18,35.17 0,19.43 -15.75,35.17 -35.18,35.17 -19.43,0 -35.17,-15.74 -35.17,-35.17 0,-19.43 15.74,-35.17 35.17,-35.17z"/>
  </g>
  <g id="_2768277097472">
   <path class="fil1" d="M3852.25 -293.42l-773.62 0 -6.06 -0.94c-72.67,-11.29 -123.61,-56.89 -138.97,-129.9l-0.91 -4.33 -50.07 -518.72c-67.59,-60.44 -110.37,-149.8 -110.37,-249.5 0,-76.11 24.94,-146.17 66.8,-201.96l-2.34 -24.19 17.63 0 0 -138.07 -49.32 0 0 -35.92 1307.56 0 0 35.92 -47.03 0 0 138.07 28.62 0 -1.18 12.25c47.49,57.57 76.19,132.26 76.19,213.9 0,105.25 -47.67,198.96 -121.86,259.3l-49.13 508.92 -0.91 4.33c-15.36,73.01 -66.3,118.61 -138.97,129.9l-6.06 0.94zm-978.81 -749.01l-25.22 -261.31c-13.54,32.84 -21.03,68.98 -21.03,106.93 0,57.3 17.08,110.49 46.25,154.38zm1211.06 -280.34l-28.68 297.2c36.54,-46.8 58.42,-106.37 58.42,-171.24 0,-45.45 -10.74,-88.28 -29.74,-125.96zm-1194.54 -204.37l1139.96 0 0 75.7 -1139.96 0 0 -75.7zm575.48 1154.22l-380.67 0c-37.07,-5.75 -64.3,-24.57 -73.38,-67.71l-87.14 -902.83 541.19 0 541.19 0 -87.14 902.83c-9.08,43.14 -36.31,61.96 -73.38,67.71l-380.67 0z"/>
   <path class="fil0" d="M3455.84 -1596.95c-208.27,0 -416.54,0 -624.8,0 7.74,-51.51 15.49,-103.03 23.23,-154.54 133.67,-46.84 1069.47,-46.84 1203.13,0 7.74,51.51 15.49,103.03 23.24,154.54 -208.27,0 -416.54,0 -624.8,0z"/>
  </g>
  <g id="_2768277098816">
   <path class="fil0" d="M-1519.7 -1428.28l806.31 0c17.22,0 31.29,14.08 31.29,31.29 0,17.21 -14.07,31.29 -31.29,31.29l-806.31 0c-17.22,0 -31.29,-14.08 -31.29,-31.29 0,-17.21 14.07,-31.29 31.29,-31.29zm0 649l806.31 0c17.22,0 31.29,14.07 31.29,31.28 0,17.22 -14.07,31.29 -31.29,31.29l-806.31 0c-17.22,0 -31.29,-14.07 -31.29,-31.29 0,-17.21 14.07,-31.28 31.29,-31.28zm0 -324.51l763.64 0 -11.41 62.58 -752.23 0c-17.22,0 -31.29,-14.08 -31.29,-31.29 0,-17.21 14.07,-31.29 31.29,-31.29z"/>
   <g>
    <polygon class="fil1" points="-1789.77,-1903.7 -449.15,-1903.7 -449.15,-1424.63 -512.99,-1363.84 -512.99,-1839.87 -1725.93,-1839.87 -1725.93,-451.96 -512.99,-451.96 -512.99,-1018.42 -449.15,-1076.08 -449.15,-388.12 -1789.77,-388.12 "/>
    <path class="fil1" d="M-427.55 -1486.58l9.15 9.15 29.05 -29.06 -9.15 -9.15 338.62 -338.62c54.99,-54.99 144.65,-54.99 199.64,0l11.38 11.38c57.76,57.76 57.76,151.97 0,209.73l-333.57 333.57 -9.89 -9.88 -29.06 29.05 9.89 9.89 -359.86 359.86 -16.43 -16.43 -220.68 37.48 37.48 -220.68 -16.43 -16.43 359.86 -359.86zm304.12 -373.58l0.01 0c11.65,11.65 11.65,30.72 0,42.37l-221.85 221.85c-11.66,11.65 -30.72,11.65 -42.37,0l-0.01 -0.01c-11.65,-11.65 -11.65,-30.71 0,-42.36l221.86 -221.85c11.65,-11.66 30.71,-11.66 42.36,0zm-104.08 515.51l-126.65 -126.66 -29.06 29.06 126.66 126.66 29.05 -29.06zm45.08 -45.9l-125.09 -125.09 293.13 -293.13c29.88,-29.89 78.78,-29.89 108.66,0l11.38 11.37c32.66,32.67 32.66,86.1 0,118.77l-288.08 288.08zm-443.96 424.85l-105.98 -105.98 -21.68 127.66 127.66 -21.68zm198.83 -432.44l127.61 127.62 -271.41 271.41 -127.62 -127.61 271.42 -271.42z"/>
   </g>
  </g>
  <g id="_2768277097232">
   <path class="fil1" d="M1213.47 -1264.34c10.41,27.38 31.99,63.5 40.84,77.2 33.62,52.09 76.27,104.02 120.06,147.81 43.79,43.79 95.72,86.43 147.81,120.06 13.7,8.85 49.82,30.43 77.2,40.84 55.85,-100.92 138.9,-197.7 263.14,-195.42 148.96,2.75 312.26,162.96 313.91,312.71 1.5,134.99 -105.65,237.39 -224.65,282.46 -264.25,100.08 -638.13,-132.96 -821.13,-313.41l-3.44 -3.39c-180.88,-182.65 -413.56,-557.05 -313.49,-821.26 45.07,-119 147.47,-226.15 282.46,-224.65 149.75,1.66 309.96,164.95 312.71,313.91 2.28,124.24 -94.49,207.29 -195.42,263.14zm-33.6 422.33l-0.02 0.02 -1.4 -1.42 -1.42 -1.4 0.02 -0.02c-159.42,-160.94 -386.18,-513.7 -297.77,-747.07 38.13,-100.71 118.91,-180.48 216.12,-179.39 111.85,1.23 241.36,134.33 243.4,245.1 1.8,98.4 -90.14,168.51 -199.41,221.2 -16.98,68.17 90.78,220.16 185.41,315.23 95.06,94.63 247.07,202.39 315.23,185.41 52.69,-109.27 122.8,-201.21 221.2,-199.4 110.77,2.04 243.87,131.54 245.11,243.39 1.08,97.21 -78.69,177.99 -179.4,216.12 -233.37,88.41 -586.13,-138.35 -747.07,-297.77z"/>
   <path class="fil0" d="M1925.69 -1247.55c0.64,-90.7 -33.62,-181.62 -102.83,-250.83 -64.85,-64.85 -148.76,-99 -233.69,-102.52 -38.95,-1.61 -70.02,-32.3 -72.12,-71.23 -0.03,-0.67 -0.07,-1.36 -0.11,-2.03 -1.18,-21.97 6.17,-41.33 21.61,-56.98 15.46,-15.65 34.72,-23.25 56.69,-22.35 121.97,4.98 242.47,54.01 335.59,147.14 99.33,99.33 148.51,229.82 147.55,359.99 -0.15,21.36 -8.16,39.69 -23.71,54.32 -15.56,14.64 -34.34,21.51 -55.68,20.36 -0.67,-0.05 -1.34,-0.08 -2.02,-0.11 -40.19,-2.16 -71.57,-35.51 -71.28,-75.76zm45.42 0.32c-0.11,15.98 12.35,29.23 28.31,30.08 0.67,0.04 1.35,0.07 2.03,0.11 8.92,0.49 15.58,-1.95 22.09,-8.08 6.47,-6.09 9.35,-12.68 9.42,-21.57 0.9,-123.19 -47.12,-240.42 -134.25,-327.54 -81.67,-81.68 -189.91,-129.16 -305.32,-133.88 -9.19,-0.37 -16.06,2.33 -22.52,8.88 -6.45,6.53 -9.06,13.44 -8.57,22.62 0.03,0.69 0.07,1.36 0.11,2.04 0.84,15.56 13.07,27.64 28.64,28.28 99.68,4.13 193.37,45.24 263.92,115.8 75.3,75.29 116.9,176.8 116.14,283.26zm251.94 -15.9c-0.1,14.35 11.14,26.29 25.45,27.06 1.06,0.05 2.11,0.12 3.17,0.18 8.5,0.45 13.65,-1.43 19.86,-7.27 6.12,-5.77 8.41,-10.99 8.47,-19.4 1.36,-186.44 -71.31,-363.84 -203.16,-495.68 -123.6,-123.61 -287.38,-195.45 -462.04,-202.59 -8.76,-0.35 -14.1,1.74 -20.26,7.97 -6.14,6.23 -8.18,11.61 -7.71,20.35 0.06,1.06 0.12,2.12 0.17,3.19 0.76,14.1 11.66,24.85 25.77,25.43 160.05,6.62 310.52,72.67 423.79,185.93 120.87,120.87 187.71,283.9 186.49,454.83zm-45.42 -0.32c-0.28,38.61 29.88,70.66 68.43,72.73 1.05,0.06 2.1,0.13 3.16,0.18 20.92,1.13 38.17,-5.17 53.43,-19.54 15.2,-14.31 22.61,-31.28 22.77,-52.15 1.45,-198.6 -75.99,-387.67 -216.46,-528.13 -131.69,-131.69 -306.25,-208.25 -492.31,-215.85 -21.56,-0.88 -39.28,6.09 -54.44,21.45 -15.15,15.34 -21.9,33.17 -20.74,54.7 0.07,1.06 0.12,2.12 0.17,3.17 2.02,37.48 31.76,66.84 69.25,68.39 148.66,6.15 288.33,67.43 393.55,172.66 112.3,112.3 174.32,263.62 173.19,422.39z"/>
  </g>
  <g id="_2768277097040">
   <path class="fil0" d="M989.65 642.06c96.44,0 174.63,78.18 174.63,174.63 0,96.44 -78.19,174.63 -174.63,174.63 -96.44,0 -174.63,-78.19 -174.63,-174.63 0,-96.45 78.19,-174.63 174.63,-174.63zm152.46 360.8c130.73,36.09 227.45,156.36 227.45,298.16l0 233.19 -754.17 0 0 -233.19c0,-140.28 94.67,-259.5 223.27,-296.99 -54.66,-44.11 -89.64,-111.63 -89.64,-187.34 0,-132.9 107.74,-240.63 240.63,-240.63 132.89,0 240.63,107.73 240.63,240.63 0,75.03 -34.34,142.04 -88.17,186.17zm-463.27 467.9l627.27 0 0 -169.74c0,-332.07 -627.27,-331.88 -627.27,0l0 169.74z"/>
   <g>
    <path class="fil1" d="M1564.47 546.85c96.44,0 174.63,78.19 174.63,174.63 0,96.44 -78.19,174.63 -174.63,174.63 -96.45,0 -174.63,-78.19 -174.63,-174.63 0,-96.44 78.18,-174.63 174.63,-174.63zm152.46 360.8c130.72,36.1 227.45,156.37 227.45,298.16l0 233.19 -574.82 0 0 -63.45 511.36 0 0 -169.74c0,-287.09 -468.77,-325.79 -595.78,-116.55 -15.15,-16.06 -31.99,-30.51 -50.22,-43.07 39.85,-65.63 103.4,-115.45 178.55,-137.36 -54.66,-44.11 -89.64,-111.64 -89.64,-187.35 0,-132.89 107.74,-240.63 240.64,-240.63 132.89,0 240.63,107.74 240.63,240.63 0,75.03 -34.35,142.04 -88.17,186.17z"/>
    <path class="fil1" d="M414.83 546.85c96.45,0 174.63,78.19 174.63,174.63 0,96.44 -78.18,174.63 -174.63,174.63 -96.44,0 -174.63,-78.19 -174.63,-174.63 0,-96.44 78.19,-174.63 174.63,-174.63zm152.47 360.8c76.97,21.25 142.14,71.69 182.73,138.53 -18.23,12.55 -35.06,27 -50.2,43.07 -126.99,-209.32 -595.8,-170.38 -595.8,116.56l0 169.74 511.36 0 0 63.45 -574.81 0 0 -233.19c0,-140.28 94.66,-259.5 223.26,-296.98 -54.66,-44.11 -89.64,-111.64 -89.64,-187.35 0,-132.89 107.74,-240.63 240.63,-240.63 132.9,0 240.64,107.74 240.64,240.63 0,75.03 -34.35,142.04 -88.17,186.17z"/>
   </g>
  </g>
 </g>
</svg>
