<?xml version="1.0" encoding="UTF-8"?>
<!DOCTYPE svg PUBLIC "-//W3C//DTD SVG 1.1//EN" "http://www.w3.org/Graphics/SVG/1.1/DTD/svg11.dtd">
<!-- Creator: CorelDRAW 2021 (64 Bit) -->
<svg xmlns="http://www.w3.org/2000/svg" xml:space="preserve" width="16.93mm" height="16.93mm" version="1.1" style="shape-rendering:geometricPrecision; text-rendering:geometricPrecision; image-rendering:optimizeQuality; fill-rule:evenodd; clip-rule:evenodd"
viewBox="0 0 1693 1693"
 xmlns:xlink="http://www.w3.org/1999/xlink"
 xmlns:xodm="http://www.corel.com/coreldraw/odm/2003">
 <defs>
  <style type="text/css">
   <![CDATA[
    .fil1 {fill:#FEFEFE}
    .fil0 {fill:#0069B1}
   ]]>
  </style>
 </defs>
 <g id="Camada_x0020_1">
  <metadata id="CorelCorpID_0Corel-Layer"/>
  <g id="_2177817535584">
   <circle class="fil0" cx="839.37" cy="847.03" r="846.5"/>
   <g>
    <path class="fil1" d="M578.98 1184.91l497.89 0 0 -129.16c0,-260.73 -497.89,-260.58 -497.89,0l0 129.16zm246.58 -667.17c-73.54,0 -132.98,59.76 -132.98,133.25 0,73.48 59.44,133.24 132.98,133.24 73.55,0 132.99,-59.76 132.99,-133.24 0,-73.49 -59.44,-133.25 -132.99,-133.25zm151.9 283.45c105.51,38.85 177.73,140.4 177.73,254.56l0 207.57 -654.54 0 0 -207.57c0,-112.82 70.56,-213.46 174.32,-253.27 -40.08,-39.95 -62.84,-94.17 -62.84,-151.49 0,-117.93 95.43,-213.8 213.43,-213.8 118.02,0 213.45,95.87 213.45,213.8 0,56.66 -22.24,110.36 -61.55,150.2z"/>
    <path class="fil1" d="M1105.03 583.57c-18.76,0.1 -34.1,-15.05 -34.2,-33.85l-0.2 -36.25c-0.28,-18.61 14.73,-34.09 33.68,-34.38l73.63 -0.39 -0.39 -74.14c0.28,-18.5 15.32,-33.41 33.84,-33.51l36.43 -0.19c19.04,-0.11 34.49,15.49 34.2,34.19l0.39 73.09 74.16 -0.39c18.51,0.29 33.41,15.32 33.51,33.85l0.2 36.42c0.1,19.05 -15.5,34.5 -34.2,34.2l-73.11 0.4 0.4 73.48c0.09,18.77 -15.05,34.1 -33.85,34.2l-36.26 0.2c-18.61,0.29 -34.08,-14.72 -34.37,-33.67l-0.39 -73.65 -73.47 0.39zm-0.18 -33.71l107.17 -0.57 0.57 107.17c0.01,0.18 0.15,0.32 0.32,0.32l36.43 -0.2c0.18,0 0.32,-0.14 0.32,-0.31l-0.58 -107.18 107.17 -0.57c0.18,0 0.32,-0.15 0.32,-0.32l-0.19 -36.43c0,-0.17 -0.15,-0.31 -0.33,-0.32l-107.17 0.58 -0.57 -107.17c0.01,-0.17 -0.14,-0.31 -0.32,-0.31l-36.42 0.19c-0.18,0 -0.32,0.15 -0.32,0.32l0.57 107.17 -107.16 0.57c-0.18,0 -0.32,0.14 -0.32,0.32l0.2 36.43c0,0.17 0.14,0.31 0.31,0.31z"/>
   </g>
  </g>
 </g>
</svg>
