<?xml version="1.0" encoding="UTF-8"?>
<!DOCTYPE svg PUBLIC "-//W3C//DTD SVG 1.1//EN" "http://www.w3.org/Graphics/SVG/1.1/DTD/svg11.dtd">
<!-- Creator: CorelDRAW 2021 (64 Bit) -->
<svg xmlns="http://www.w3.org/2000/svg" xml:space="preserve" width="50mm" height="50mm" version="1.1" style="shape-rendering:geometricPrecision; text-rendering:geometricPrecision; image-rendering:optimizeQuality; fill-rule:evenodd; clip-rule:evenodd"
viewBox="0 0 5000 5000"
 xmlns:xlink="http://www.w3.org/1999/xlink"
 xmlns:xodm="http://www.corel.com/coreldraw/odm/2003">
 <defs>
  <style type="text/css">
   <![CDATA[
    .fil1 {fill:#002A4B}
    .fil0 {fill:#E8EAEC}
   ]]>
  </style>
 </defs>
 <g id="Camada_x0020_1">
  <metadata id="CorelCorpID_0Corel-Layer"/>
  <g id="_2166282878976">
   <circle class="fil0" cx="2493.87" cy="2506.13" r="2500"/>
   <path class="fil1" d="M2761.53 2521.99c498.68,113.28 879.63,536.31 929.87,1056.09l-2395.07 0c50.3,-520.37 432.06,-943.76 931.55,-1056.47 157.52,-35.54 376.24,-35.39 533.65,0.38zm-267.67 -1409.74c319.51,0 578.52,259.02 578.52,578.53 0,224.36 -127.74,418.88 -314.44,514.82 -143.97,73.97 -370.2,76.79 -516.25,5.94 -193.16,-93.68 -326.34,-291.66 -326.34,-520.76 0,-319.51 259.01,-578.53 578.51,-578.53zm0 -228.16c445.51,0 806.69,361.18 806.69,806.69 0,266.34 -129.11,502.51 -328.13,649.39 558.23,197.13 958.26,729.37 958.26,1355.08 0,38.01 -1.51,75.66 -4.4,112.92l-49.93 0 -184.57 0 -2395.83 0 -195.02 0 -39.48 0c-2.89,-37.26 -4.4,-74.91 -4.4,-112.92 0,-625.71 400.02,-1157.95 958.25,-1355.08 -199.01,-146.88 -328.11,-383.05 -328.11,-649.39 0,-445.51 361.16,-806.69 806.67,-806.69z"/>
  </g>
 </g>
</svg>
