<?xml version="1.0" encoding="UTF-8"?>
<!DOCTYPE svg PUBLIC "-//W3C//DTD SVG 1.1//EN" "http://www.w3.org/Graphics/SVG/1.1/DTD/svg11.dtd">
<!-- Creator: CorelDRAW 2021 (64 Bit) -->
<svg xmlns="http://www.w3.org/2000/svg" xml:space="preserve" width="50mm" height="14.8mm" version="1.1" style="shape-rendering:geometricPrecision; text-rendering:geometricPrecision; image-rendering:optimizeQuality; fill-rule:evenodd; clip-rule:evenodd"
viewBox="0 0 5000 1480"
 xmlns:xlink="http://www.w3.org/1999/xlink"
 xmlns:xodm="http://www.corel.com/coreldraw/odm/2003">
 <defs>
  <style type="text/css">
   <![CDATA[
    .fil1 {fill:#002F5A}
    .fil0 {fill:#C72B25}
   ]]>
  </style>
 </defs>
 <g id="Camada_x0020_1">
  <metadata id="CorelCorpID_0Corel-Layer"/>
  <g id="_2769046338672">
   <polygon class="fil0" points="4268.99,1153.79 4998.06,1153.79 4998.06,1492.77 4037.58,1492.77 "/>
   <g>
    <path class="fil1" d="M1442.14 339.3c119.19,0 215.82,96.62 215.82,215.82 0,119.18 -96.63,215.82 -215.82,215.82 -119.19,0 -215.82,-96.64 -215.82,-215.82 0,-119.2 96.63,-215.82 215.82,-215.82zm0 -326.51c299.51,0 542.33,242.81 542.33,542.33 0,299.5 -242.82,542.32 -542.33,542.32 -299.51,0 -542.32,-242.82 -542.32,-542.32 0,-299.52 242.81,-542.33 542.32,-542.33z"/>
    <polygon class="fil1" points="2172.28,12.79 2007.77,1097.44 2346.76,1097.44 2406.57,645.32 2600.99,1097.44 2693.21,1097.44 2785.44,1097.44 2979.85,645.32 3039.67,1097.44 3378.66,1097.44 3214.14,12.79 2997.3,12.79 2693.21,635.35 2389.13,12.79 "/>
    <rect class="fil1" x="3401.96" y="12.8" width="331.51" height="1084.65"/>
    <polygon class="fil1" points="-1.94,1153.79 3777.92,1151.44 4187.98,555.12 3821.58,12.79 4230.36,12.79 4409.82,293.88 4589.29,12.79 4998.06,12.79 4631.67,555.12 4998.06,1097.43 4594.27,1097.43 4409.82,819.8 4160.56,1182.18 4158.65,1182.18 3948.4,1490.17 -1.94,1492.77 "/>
    <path class="fil1" d="M621.58 562.79c339.85,0 338.23,534.65 -42.29,534.65l-249.72 0 -245.67 0 -85.84 0 0 -1084.65 85.84 0 245.67 0 212.14 0c358.11,0 342.02,550 79.87,550zm-292.01 -294.45l116.5 0c47.52,0 86.38,38.88 86.38,86.38l0 2.25c0,48.75 -39.87,88.62 -88.61,88.62l-114.27 0 0 -177.25zm0 390.22l129.43 0c52.79,0 95.97,43.18 95.97,95.97l0 2.49c0,54.15 -44.3,98.45 -98.45,98.45l-126.95 0 0 -196.91z"/>
   </g>
  </g>
 </g>
</svg>
